PathFileType  4	(X/Y/Z) C:\Users\antoi\Documents\MyRepositories\mobilecap\ResultsAnalysis
DataRate	CameraRate	NumFrames	NumMarkers	Units	OrigDataRate	OrigDataStartFrame	OrigNumFrames
100.0	100.0	4	51	mm	100.0	131	261
Frame#	Time	r_knee			r_shank_antsup			r_ankle			r_calc			r_5meta			r_toe			L_knee			L_shank_antsup			L_ankle			L_calc			L_5meta			L_toe			r_sh2			r_sh3			r_sh4			L_sh2			L_sh3			r_thigh1			r_thigh2			r_thigh3			r_thigh4			r_thigh5			L_thigh1			L_thigh2			L_thigh3			L_thigh4			r.ASIS			r.PSIS			L.ASIS			L.PSIS			C7			R_Shoulder			L_Shoulder			R_Sternum			L_Sternum			R_humerus			R_elbow_med			R_elbow_lat			R_forearm			R_wrist_radius			R_wrist_ulna			L_humerus			L_elbow_med			L_elbow_lat			L_forearm			L_wrist_radius			L_wrist_ulna			R_HJC			L_HJC			R_HJC_reg			L_HJC_reg			
		X1	Y1	Z1	X2	Y2	Z2	X3	Y3	Z3	X4	Y4	Z4	X5	Y5	Z5	X6	Y6	Z6	X7	Y7	Z7	X8	Y8	Z8	X9	Y9	Z9	X10	Y10	Z10	X11	Y11	Z11	X12	Y12	Z12	X13	Y13	Z13	X14	Y14	Z14	X15	Y15	Z15	X16	Y16	Z16	X17	Y17	Z17	X18	Y18	Z18	X19	Y19	Z19	X20	Y20	Z20	X21	Y21	Z21	X22	Y22	Z22	X23	Y23	Z23	X24	Y24	Z24	X25	Y25	Z25	X26	Y26	Z26	X27	Y27	Z27	X28	Y28	Z28	X29	Y29	Z29	X30	Y30	Z30	X31	Y31	Z31	X32	Y32	Z32	X33	Y33	Z33	X34	Y34	Z34	X35	Y35	Z35	X36	Y36	Z36	X37	Y37	Z37	X38	Y38	Z38	X39	Y39	Z39	X40	Y40	Z40	X41	Y41	Z41	X42	Y42	Z42	X43	Y43	Z43	X44	Y44	Z44	X45	Y45	Z45	X46	Y46	Z46	X47	Y47	Z47	X48	Y48	Z48	X49	Y49	Z49	X50	Y50	Z50	X51	Y51	Z51	

131	1.30000000	-487.63833	861.27087	-415.78673	-435.95686	771.89207	-417.53432	-456.06219	428.89523	-440.66654	-537.49388	411.45870	-501.88928	-371.07357	307.64274	-410.95000	-298.56666	332.79940	-458.73943	-524.73571	865.26822	-774.46060	-525.95123	776.40270	-796.10175	-560.15898	441.99636	-734.74212	-631.25496	408.92137	-662.80474	-470.21515	333.60757	-778.37220	-396.12602	355.30866	-731.18361	-442.13742	661.17197	-392.90645	-504.63143	781.73313	-385.67478	-523.35520	666.84720	-382.03067	-611.51252	785.86555	-770.11488	-608.30198	664.02644	-764.28924	-501.93067	1188.85946	-398.41379	-465.84463	1086.01818	-407.12627	-506.21150	1044.35143	-373.45477	-606.06315	1147.12505	-390.14905	-560.16457	1041.58777	-390.81154	-523.82274	1162.68483	-777.54788	-478.12061	1030.03598	-775.82107	-627.76153	1126.64813	-785.10625	-588.03440	995.06201	-782.44172	-523.67473	1385.48905	-458.00123	-707.41834	1405.40815	-505.51070	-551.41848	1386.18095	-701.63116	-723.29372	1408.30326	-615.24211	-520.96383	1938.21269	-597.11025	-476.93603	1907.42165	-450.14280	-526.63351	1883.22990	-742.80442	-431.16952	1814.77721	-566.00372	-438.63928	1807.67665	-628.18324	-506.26611	1859.01492	-308.87911	-630.47119	1734.69425	-172.57997	-624.28335	1824.67899	-155.97374	-457.54681	1808.27717	-127.78668	-366.62865	1803.02232	-148.66437	-378.93888	1789.24341	-106.74298	-585.53025	1813.17119	-847.01138	-644.89335	1580.52041	-915.72451	-650.19553	1647.04556	-974.38889	-573.93239	1663.25151	-988.91724	-404.01364	1678.73958	-972.32661	-402.39598	1649.25623	-1000.83119	-608.11609	1272.14982	-468.03149	-635.48509	1279.91503	-673.02805	-586.06378	1304.97407	-485.76398	-609.22824	1309.19835	-645.87698	
132	1.31000000	-474.52781	846.05364	-415.12554	-421.99211	757.53515	-416.16958	-435.99711	413.93385	-439.40695	-516.22295	395.78344	-502.03686	-349.72453	293.19010	-409.84365	-276.90060	319.76406	-456.30153	-509.25422	851.34717	-775.29488	-507.84018	762.73407	-797.35108	-531.96714	426.50540	-737.99532	-602.22474	393.81279	-665.27819	-441.41593	317.44162	-779.85316	-367.02180	341.02879	-734.53993	-426.41276	646.66758	-391.58244	-491.15873	765.95887	-385.25193	-507.82805	650.98483	-381.53508	-593.84761	769.35208	-771.79524	-586.78850	647.70469	-766.76953	-488.48831	1173.67822	-398.14750	-452.53274	1070.77704	-406.58564	-492.66929	1029.01048	-373.16624	-592.60518	1132.07977	-389.67076	-547.01311	1026.51291	-390.41690	-511.01126	1148.89158	-777.87906	-464.77065	1016.46497	-776.35218	-614.91298	1112.36991	-784.61648	-574.47868	981.04073	-782.78686	-510.29234	1370.62141	-457.64566	-694.20271	1390.23161	-504.26576	-538.86581	1372.06157	-700.80762	-710.55715	1393.22859	-613.87040	-509.22943	1923.91490	-595.73373	-464.00967	1895.98212	-450.00869	-514.78517	1871.36615	-741.13690	-419.50692	1800.18932	-564.37454	-427.04532	1793.24901	-626.70006	-498.49419	1851.02487	-309.46620	-635.04957	1735.85935	-177.14044	-624.70341	1825.94066	-160.73744	-460.05010	1801.52245	-129.04152	-369.21456	1791.49383	-147.80897	-383.02080	1778.75963	-106.20026	-579.61951	1805.09295	-843.61351	-655.52714	1577.70114	-913.27319	-658.59990	1645.47167	-970.59792	-581.67329	1657.19380	-987.02543	-410.83973	1662.28226	-973.31491	-411.55281	1633.28427	-1002.29850	-594.37033	1257.08215	-467.54030	-622.51967	1265.39876	-672.40931	-572.53208	1290.38363	-485.18110	-596.37089	1294.75217	-644.94669	
133	1.32000000	-460.73646	829.58462	-414.38334	-407.86161	742.02074	-414.71299	-416.24096	397.89140	-438.07499	-495.36565	378.99564	-501.62907	-328.68093	277.44860	-409.02667	-255.67298	305.58507	-454.18617	-493.34217	836.63952	-776.41021	-490.07836	748.33001	-798.59112	-505.02791	410.50474	-741.42115	-574.46590	378.38353	-667.99683	-414.01312	300.63693	-781.65897	-339.19896	325.85062	-737.77534	-410.70929	630.97351	-390.23960	-477.39210	748.98574	-384.59406	-492.22944	634.01300	-380.96010	-576.15797	752.63343	-773.19416	-565.99712	631.09488	-768.87419	-474.78491	1157.56725	-397.79751	-438.87953	1054.30687	-406.08724	-478.86254	1013.12611	-372.36992	-578.90964	1115.87807	-389.29040	-533.37803	1010.43254	-389.70242	-497.75228	1134.11936	-778.15252	-450.70395	1002.00127	-777.01308	-601.52413	1096.91919	-784.40355	-560.16163	965.97199	-783.43510	-496.88674	1354.67889	-457.02259	-680.83108	1373.83111	-502.80952	-526.09934	1357.08157	-700.00517	-697.62479	1376.84099	-612.38337	-497.54140	1908.64124	-594.49127	-451.26220	1883.78471	-450.04647	-502.58082	1858.52798	-739.16652	-408.07525	1784.65224	-562.83435	-415.57446	1777.70706	-625.09191	-491.06105	1842.02268	-310.56851	-640.30489	1736.19578	-183.52693	-625.24955	1825.84791	-167.11894	-463.35953	1793.43130	-131.56268	-372.84003	1778.77332	-148.08959	-388.17159	1766.77488	-106.90435	-573.02133	1796.51817	-839.80625	-666.57925	1575.64171	-908.86853	-666.90067	1644.28397	-965.50929	-589.71468	1651.07999	-983.98480	-418.62638	1645.78276	-974.02275	-421.83305	1617.00616	-1003.01838	-580.32495	1240.84445	-467.00948	-609.19561	1249.84109	-671.74865	-558.85988	1274.78439	-484.35459	-583.32172	1279.16861	-643.96315	
134	1.33000000	-447.26183	811.94350	-413.42842	-393.58333	725.33347	-413.02190	-396.64499	380.55624	-436.74138	-474.99349	361.46565	-500.64994	-308.02792	260.07285	-408.71205	-234.87040	289.99096	-452.44145	-477.09153	821.05759	-777.62830	-472.73786	733.08975	-800.03027	-479.47295	393.91832	-745.09792	-548.26240	362.32706	-671.02916	-387.70253	283.38216	-784.09560	-312.70687	309.90086	-740.85070	-395.17095	614.17180	-388.76932	-463.53359	731.15856	-383.59634	-476.80868	615.96579	-380.20029	-558.60368	735.42260	-774.07181	-546.01326	614.04226	-770.43260	-460.86823	1140.43920	-397.36328	-424.98084	1036.89898	-405.66185	-465.10505	996.50660	-371.15914	-564.99655	1098.55987	-388.97805	-519.22848	993.38880	-388.75100	-483.93775	1118.36859	-778.30736	-435.83669	986.66760	-777.82654	-587.37001	1080.42771	-784.55890	-545.01249	949.82221	-784.07648	-483.37277	1337.67590	-456.26282	-667.37629	1356.21408	-501.28900	-513.09975	1341.15384	-699.20174	-684.56599	1359.23553	-610.77012	-485.91630	1892.37292	-593.45128	-438.85560	1870.29607	-450.59366	-490.12296	1844.59159	-737.05538	-396.75814	1768.42387	-561.78103	-404.18487	1761.24168	-623.53688	-484.14463	1831.99403	-312.20524	-645.78268	1735.37087	-191.87206	-625.93161	1824.01581	-175.13878	-467.39205	1783.71597	-135.31882	-377.35523	1764.66738	-149.72620	-394.26331	1753.15461	-108.94467	-565.75618	1787.31537	-835.79926	-677.53365	1574.15098	-902.24927	-674.84704	1643.23853	-958.81973	-597.99114	1645.11074	-979.89647	-427.28342	1628.71935	-974.03610	-433.10281	1600.50652	-1003.31214	-566.02647	1223.46815	-466.46686	-595.57740	1233.22528	-671.07434	-544.98382	1258.08816	-483.44839	-570.03321	1262.49118	-642.98593	
